<svg viewBox="0 0 150 48" fill="none" xmlns="http://www.w3.org/2000/svg">
<path d="M148.613 27.9171V21.6318L0.783096 21.6318V27.9171L148.613 27.9171Z" fill="#52B0FF"/>
<path d="M0 15.3021L5.2006 14.2971C5.29467 16.9994 6.13446 18.2877 7.91088 18.2877C9.43689 18.2877 10.1535 17.5647 10.1535 15.4905V0H15.5727V14.2022C15.5727 19.7645 13.2996 22.0578 7.78637 22.0578C2.2731 22.0578 0.435804 18.6967 0 15.3021Z" fill="currentColor"/>
<path d="M18.9429 16.3517V5.9209H24.2376V16.4466C24.2376 17.9554 24.9543 18.5514 26.1067 18.5514C27.6327 18.5514 28.5666 17.6093 28.5666 15.4095V5.9209H33.8613V21.632H28.8156V17.3901H28.6911C27.9122 21.0667 26.1994 22.0088 23.8641 22.0088C20.563 22.0088 18.9429 20.2487 18.9429 16.3531V16.3517Z" fill="currentColor"/>
<path d="M36.537 18.3002L39.4022 16.3516C40.3361 18.1117 41.8316 18.8027 43.763 18.8027C45.2268 18.8027 45.8812 18.363 45.8812 17.5464C45.8812 16.6043 45.2586 16.1004 43.514 15.7863L41.3336 15.3774C38.4061 14.8428 36.8178 13.1148 36.8178 10.6959C36.8178 7.45903 39.4022 5.57471 43.3577 5.57471C47.3131 5.57471 49.1199 7.20918 50.1161 9.03069L47.3435 10.8215C46.6269 9.18702 45.1949 8.65383 43.8861 8.65383C42.5774 8.65383 41.7998 9.15632 41.7998 9.97286C41.7998 10.7894 42.392 11.1984 43.8861 11.4817L46.097 11.8907C49.3676 12.4881 50.9559 13.8392 50.9559 16.7606C50.9559 19.5257 49.2113 22.0074 44.0729 22.0074C40.2738 22.0074 37.688 20.5307 36.5356 18.2988L36.537 18.3002Z" fill="currentColor"/>
<path d="M54.102 17.3887V9.06136H51.9838V5.91942H54.102V1.80322H59.3967V5.91942H61.9506V9.06136H59.3967V16.9169C59.3967 17.954 59.802 18.3629 60.5795 18.3629H61.9506V21.6305H58.4932C55.1604 21.6305 54.102 20.5627 54.102 17.3887Z" fill="currentColor"/>
<path d="M63.615 5.9209H69.3455L71.4941 15.8185H71.6186L74.3593 5.9209H78.7201L81.3681 15.8185H81.4926L83.8598 5.9209H88.0339L83.2068 21.632H78.6592L75.8867 11.7651H75.7622L73.1141 21.632H68.5666L63.615 5.9209Z" fill="currentColor"/>
<path d="M88.5277 13.7749C88.5277 8.74723 91.7665 5.54248 96.6254 5.54248C101.484 5.54248 104.723 8.74723 104.723 13.7749C104.723 18.8025 101.484 22.0073 96.6254 22.0073C91.7665 22.0073 88.5277 18.8025 88.5277 13.7749ZM99.1793 13.7749C99.1793 9.72149 98.3077 8.65371 96.6254 8.65371C94.943 8.65371 94.0714 9.72149 94.0714 13.7749C94.0714 17.8283 94.943 18.8961 96.6254 18.8961C98.3077 18.8961 99.1793 17.8283 99.1793 13.7749Z" fill="currentColor"/>
<path d="M107.054 5.92109H112.038V11.1372H112.162C112.909 6.83254 114.343 5.82617 116.647 5.82617H116.928V10.5398H114.374C112.848 10.5398 112.35 11.0423 112.35 12.8959V21.6308H107.056V5.92109H107.054Z" fill="currentColor"/>
<path d="M125.754 15.347L124.228 17.0442V21.6322H118.995V0.0336914H124.228V12.6768L129.647 5.92115H134.349L129.211 11.5769L134.693 21.6322H129.087L125.754 15.3484V15.347Z" fill="currentColor"/>
<path d="M135.034 18.3002L137.9 16.3516C138.833 18.1117 140.329 18.8027 142.26 18.8027C143.724 18.8027 144.378 18.363 144.378 17.5464C144.378 16.6043 143.756 16.1004 142.011 15.7863L139.831 15.3774C136.903 14.8428 135.315 13.1148 135.315 10.6959C135.315 7.45903 137.9 5.57471 141.855 5.57471C145.81 5.57471 147.617 7.20918 148.613 9.03069L145.841 10.8215C145.124 9.18702 143.692 8.65383 142.383 8.65383C141.075 8.65383 140.297 9.15632 140.297 9.97286C140.297 10.7894 140.889 11.1984 142.383 11.4817L144.594 11.8907C147.865 12.4881 149.453 13.8392 149.453 16.7606C149.453 19.5257 147.709 22.0074 142.57 22.0074C138.771 22.0074 136.185 20.5307 135.033 18.2988L135.034 18.3002Z" fill="currentColor"/>
<path d="M25.5077 45.588H21.6726L20.9809 47.8185H18.8447L22.3934 37.3486H25.1909L28.7396 47.8185H26.1828L25.5063 45.588H25.5077ZM25.011 43.9954L23.7921 39.9741L23.6413 39.3362H23.5818L23.4158 39.9741L22.1679 43.9954H25.0096H25.011Z" fill="currentColor"/>
<path d="M29.2971 44.0247C29.2971 41.5974 30.5755 40.0494 32.3948 40.0494C33.3425 40.0494 34.0647 40.4137 34.5752 41.1424V36.8936H36.786V47.8184H34.6056V46.7255C34.1242 47.5142 33.4476 47.9999 32.3948 47.9999C30.5755 47.9999 29.2971 46.452 29.2971 44.0247ZM34.6361 44.0247C34.6361 42.2185 33.9291 41.4759 33.1018 41.4759C32.2744 41.4759 31.5979 42.1892 31.5979 44.0247C31.5979 45.8601 32.2744 46.5734 33.1018 46.5734C33.9291 46.5734 34.6361 45.8294 34.6361 44.0247Z" fill="currentColor"/>
<path d="M37.688 40.231H39.9888L41.4775 45.0409L41.6283 45.6787H41.6891L41.84 45.0409L43.3134 40.231H45.3139L42.5165 47.8171H40.4869L37.6894 40.231H37.688Z" fill="currentColor"/>
<path d="M46.1108 37.1519H48.4268V39.2148H46.1108V37.1519ZM46.1703 40.2324H48.3812V47.8185H46.1703V40.2324Z" fill="currentColor"/>
<path d="M49.6443 46.2092L51.2837 45.3745C51.6448 46.1785 52.3822 46.6795 53.1639 46.6795C53.9456 46.6795 54.2915 46.3613 54.2915 45.8756C54.2915 45.3591 53.9913 45.0869 53.074 44.9041L52.1263 44.7073C50.6819 44.4044 49.9155 43.6604 49.9155 42.4615C49.9155 40.9289 51.1634 40.0635 52.9841 40.0635C54.4423 40.0635 55.5408 40.5492 56.1869 41.7328L54.6083 42.5522C54.2168 41.6575 53.6606 41.3685 53.0297 41.3685C52.2923 41.3685 51.9617 41.6868 51.9617 42.1879C51.9617 42.6429 52.3075 42.9011 53.1044 43.0533L54.0826 43.2501C55.6459 43.553 56.4138 44.2215 56.4138 45.5406C56.4138 46.8596 55.4661 47.9986 53.1653 47.9986C51.3612 47.9986 50.3374 47.3467 49.6457 46.2078L49.6443 46.2092Z" fill="currentColor"/>
<path d="M57.2383 44.0245C57.2383 41.5973 58.7726 40.0493 61.0886 40.0493C63.4046 40.0493 64.9389 41.5973 64.9389 44.0245C64.9389 46.4518 63.4046 47.9998 61.0886 47.9998C58.7726 47.9998 57.2383 46.4518 57.2383 44.0245ZM62.6368 44.0245C62.6368 42.1891 61.945 41.4758 61.0873 41.4758C60.2295 41.4758 59.5377 42.1891 59.5377 44.0245C59.5377 45.86 60.2295 46.5733 61.0873 46.5733C61.945 46.5733 62.6368 45.86 62.6368 44.0245Z" fill="currentColor"/>
<path d="M66.382 40.2309H68.5928V41.4145C69.0286 40.5044 69.5709 40.1401 70.6833 40.1401H70.9392V42.0217H69.9915C69.059 42.0217 68.5928 42.4767 68.5928 43.5696V47.8184H66.382V40.2323V40.2309Z" fill="currentColor"/>
<path d="M74.759 37.3486H78.94C82.1428 37.3486 84.3094 39.473 84.3094 42.5828C84.3094 45.6926 82.1442 47.817 78.94 47.817H74.759V37.3472V37.3486ZM78.6536 46.2551C80.7441 46.2551 81.9477 45.0408 81.9477 42.5828C81.9477 40.1248 80.7441 38.9105 78.6536 38.9105H77.0294V46.2537H78.6536V46.2551Z" fill="currentColor"/>
<path d="M85.3761 45.9061C85.3761 44.5564 86.1273 44.1153 87.8276 43.6142L89.0313 43.2806C89.7383 43.0685 89.9942 42.8256 89.9942 42.2645C89.9942 41.6727 89.7078 41.3237 89.0313 41.3237C88.1597 41.3237 87.7529 41.8095 87.7225 42.887L85.5864 42.6902C85.7662 40.9301 86.9242 40.0508 89.0299 40.0508C91.2864 40.0508 92.2037 40.9455 92.2037 42.9331V46.1043C92.2037 46.3933 92.3088 46.5133 92.5495 46.5133H92.865V47.8938H91.7969C90.7441 47.8938 90.1879 47.6048 90.127 46.558L90.1118 46.2998C89.6912 47.4834 88.9082 47.9984 87.6907 47.9984C86.2463 47.9984 85.3747 47.1945 85.3747 45.9047L85.3761 45.9061ZM89.9928 44.7686V43.8739C89.813 43.9953 89.557 44.086 89.2554 44.1921L88.8639 44.3135C87.9466 44.6025 87.6007 44.9961 87.6007 45.6186C87.6007 46.2411 87.9618 46.6054 88.5485 46.6054C89.3301 46.6054 89.9928 45.9075 89.9928 44.77V44.7686Z" fill="currentColor"/>
<path d="M93.4211 46.2092L95.0606 45.3745C95.4217 46.1785 96.1591 46.6795 96.9408 46.6795C97.7225 46.6795 98.0683 46.3613 98.0683 45.8756C98.0683 45.3591 97.7681 45.0869 96.8508 44.9041L95.9032 44.7073C94.4588 44.4044 93.6923 43.6604 93.6923 42.4615C93.6923 40.9289 94.9402 40.0635 96.7609 40.0635C98.2191 40.0635 99.3176 40.5492 99.9637 41.7328L98.3852 42.5522C97.9936 41.6575 97.4375 41.3685 96.8066 41.3685C96.0692 41.3685 95.7385 41.6868 95.7385 42.1879C95.7385 42.6429 96.0844 42.9011 96.8813 43.0533L97.8594 43.2501C99.4228 43.553 100.191 44.2215 100.191 45.5406C100.191 46.8596 99.2429 47.9986 96.9422 47.9986C95.1381 47.9986 94.1143 47.3467 93.4225 46.2078L93.4211 46.2092Z" fill="currentColor"/>
<path d="M101.407 36.8936H103.618V41.3085C104.099 40.4584 104.85 40.0494 105.918 40.0494C107.527 40.0494 108.339 40.9595 108.339 42.8564V47.8184H106.129V42.8564C106.129 41.9463 105.768 41.5067 105.032 41.5067C104.145 41.5067 103.618 42.0678 103.618 43.236V47.8184H101.407V36.8936Z" fill="currentColor"/>
<path d="M112.265 46.7701V47.817H110.084V36.8921H112.295V41.1856C112.792 40.457 113.528 40.048 114.46 40.048C116.295 40.048 117.573 41.5959 117.573 44.0232C117.573 46.4505 116.295 47.9984 114.46 47.9984C113.423 47.9984 112.746 47.5588 112.265 46.7687V46.7701ZM115.272 44.0246C115.272 42.1891 114.596 41.4759 113.768 41.4759C112.941 41.4759 112.234 42.2198 112.234 44.0246C112.234 45.8294 112.926 46.5733 113.768 46.5733C114.611 46.5733 115.272 45.8601 115.272 44.0246Z" fill="currentColor"/>
<path d="M118.656 44.0245C118.656 41.5973 120.191 40.0493 122.507 40.0493C124.823 40.0493 126.357 41.5973 126.357 44.0245C126.357 46.4518 124.823 47.9998 122.507 47.9998C120.191 47.9998 118.656 46.4518 118.656 44.0245ZM124.055 44.0245C124.055 42.1891 123.363 41.4758 122.505 41.4758C121.647 41.4758 120.956 42.1891 120.956 44.0245C120.956 45.86 121.647 46.5733 122.505 46.5733C123.363 46.5733 124.055 45.86 124.055 44.0245Z" fill="currentColor"/>
<path d="M127.363 45.9061C127.363 44.5564 128.115 44.1153 129.814 43.6142L131.018 43.2806C131.725 43.0685 131.981 42.8256 131.981 42.2645C131.981 41.6727 131.694 41.3237 131.018 41.3237C130.146 41.3237 129.74 41.8095 129.709 42.887L127.573 42.6902C127.753 40.9301 128.911 40.0508 131.017 40.0508C133.273 40.0508 134.19 40.9455 134.19 42.9331V46.1043C134.19 46.3933 134.295 46.5133 134.536 46.5133H134.852V47.8938H133.784C132.731 47.8938 132.175 47.6048 132.114 46.558L132.098 46.2998C131.678 47.4834 130.895 47.9984 129.677 47.9984C128.233 47.9984 127.361 47.1945 127.361 45.9047L127.363 45.9061ZM131.979 44.7686V43.8739C131.8 43.9953 131.544 44.086 131.242 44.1921L130.851 44.3135C129.933 44.6025 129.587 44.9961 129.587 45.6186C129.587 46.2411 129.948 46.6054 130.535 46.6054C131.317 46.6054 131.979 45.9075 131.979 44.77V44.7686Z" fill="currentColor"/>
<path d="M136.055 40.2309H138.266V41.4145C138.702 40.5044 139.244 40.1401 140.357 40.1401H140.613V42.0217H139.665C138.732 42.0217 138.266 42.4767 138.266 43.5696V47.8184H136.055V40.2323V40.2309Z" fill="currentColor"/>
<path d="M141.094 44.0247C141.094 41.5974 142.372 40.0494 144.192 40.0494C145.139 40.0494 145.862 40.4137 146.372 41.1424V36.8936H148.583V47.8184H146.403V46.7255C145.921 47.5142 145.245 47.9999 144.192 47.9999C142.372 47.9999 141.094 46.452 141.094 44.0247ZM146.433 44.0247C146.433 42.2185 145.726 41.4759 144.899 41.4759C144.071 41.4759 143.395 42.1892 143.395 44.0247C143.395 45.8601 144.071 46.5734 144.899 46.5734C145.726 46.5734 146.433 45.8294 146.433 44.0247Z" fill="currentColor"/>
</svg>
