<svg viewBox="0 0 159 30" fill="none" xmlns="http://www.w3.org/2000/svg">
    <path d="M157.854 29.3892V22.7734L0.831223 22.7734V29.3892L157.854 29.3892Z" fill="#52B0FF"></path>
    <path d="M0 16.1117L5.5244 15.0532C5.62281 17.8985 6.5173 19.2545 8.40251 19.2545C10.0231 19.2545 10.7842 18.4934 10.7842 16.3108V0H16.5404V14.9526C16.5404 20.8073 14.1259 23.2239 8.2691 23.2239C2.21545 23.2239 0.463647 19.6831 0 16.1117Z" fill="white"></path>
    <path d="M20.1206 17.2166V6.2334H25.7456V17.315C25.7456 18.9028 26.5067 19.5304 27.7314 19.5304C29.352 19.5304 30.3449 18.5375 30.3449 16.2215V6.2334H35.9699V22.7738H30.6117V18.3079H30.4783C29.6516 22.1789 27.832 23.1718 25.3498 23.1718C21.8418 23.1718 20.1206 21.3194 20.1206 17.2166Z" fill="white"></path>
    <path d="M38.8086 19.268L41.8529 17.2166C42.8458 19.069 44.4336 19.7973 46.485 19.7973C48.04 19.7973 48.7355 19.3336 48.7355 18.4741C48.7355 17.4812 48.0728 16.952 46.2204 16.6217L43.9043 16.1909C40.7944 15.6288 39.1082 13.8092 39.1082 11.2613C39.1082 7.85397 41.8529 5.86816 46.0564 5.86816C50.2248 5.86816 52.1756 7.58934 53.2341 9.50736L50.2904 11.3926C49.5293 9.67138 48.0072 9.10932 46.6184 9.10932C45.1619 9.10932 44.403 9.63858 44.403 10.4981C44.403 11.3248 45.0307 11.7884 46.6184 12.0858L48.9673 12.5167C52.4403 13.1444 54.1286 14.5681 54.1286 17.6452C54.1286 20.5562 52.2762 23.1696 46.8174 23.1696C42.778 23.1718 40.0333 21.6169 38.8086 19.268Z" fill="white"></path>
    <path d="M57.466 18.3076V9.54205H55.2156V6.2331H57.466V1.89844H63.091V6.2331H65.8029V9.54205H63.091V17.8133C63.091 18.9047 63.5219 19.3355 64.3486 19.3355H65.8051V22.7757H62.1331C58.5901 22.7735 57.466 21.6494 57.466 18.3076Z" fill="white"></path>
    <path d="M67.5723 6.2334H73.6587L75.942 16.6545H76.0754L78.9863 6.2334H83.6184L86.4309 16.6545H86.5643L89.0794 6.2334H93.5124L88.3839 22.7738H83.555L80.6112 12.3855H80.48L77.6675 22.7738H72.8386L67.5723 6.2334Z" fill="white"></path>
    <path d="M94.033 14.5041C94.033 9.21148 97.4731 5.83691 102.634 5.83691C107.796 5.83691 111.236 9.21148 111.236 14.5041C111.236 19.7966 107.796 23.1712 102.634 23.1712C97.4731 23.1712 94.033 19.7966 94.033 14.5041ZM105.346 14.5041C105.346 10.2372 104.419 9.11087 102.634 9.11087C100.848 9.11087 99.9226 10.235 99.9226 14.5041C99.9226 18.7709 100.85 19.8972 102.634 19.8972C104.419 19.895 105.346 18.7709 105.346 14.5041Z" fill="white"></path>
    <path d="M113.712 6.23318H119.004V11.7248H119.138C119.932 7.19328 121.454 6.13477 123.901 6.13477H124.198V11.0971H121.487C119.866 11.0971 119.337 11.6264 119.337 13.5772V22.7736H113.712V6.23318Z" fill="white"></path>
    <path d="M133.572 16.1578L131.951 17.9446V22.7735H126.394V0.0351562H131.951V13.3453L137.707 6.23316H142.703L137.244 12.1884L143.066 22.7735H137.11L133.572 16.1578Z" fill="white"></path>
    <path d="M143.431 19.268L146.475 17.2166C147.468 19.069 149.056 19.7973 151.107 19.7973C152.662 19.7973 153.358 19.3336 153.358 18.4741C153.358 17.4812 152.695 16.952 150.843 16.6217L148.527 16.1909C145.417 15.6288 143.731 13.8092 143.731 11.2613C143.731 7.85397 146.477 5.86816 150.679 5.86816C154.847 5.86816 156.798 7.58934 157.856 9.50736L154.913 11.3926C154.152 9.67138 152.629 9.10932 151.241 9.10932C149.784 9.10932 149.025 9.63858 149.025 10.4981C149.025 11.3248 149.653 11.7884 151.241 12.0858L153.59 12.5167C157.063 13.1444 158.751 14.5681 158.751 17.6452C158.751 20.5562 156.899 23.1696 151.44 23.1696C147.4 23.1718 144.653 21.6169 143.431 19.268Z" fill="white"></path>
</svg>